<?xml version="1.0" encoding="utf-8"?>
<!-- Generator: Adobe Illustrator 23.1.0, SVG Export Plug-In . SVG Version: 6.00 Build 0)  -->
<svg version="1.1" id="Layer_1" xmlns="http://www.w3.org/2000/svg" xmlns:xlink="http://www.w3.org/1999/xlink" x="0px" y="0px"
	 viewBox="0 0 779.6 372.4" style="enable-background:new 0 0 779.6 372.4;" xml:space="preserve">
<style type="text/css">
	.st0{fill-rule:evenodd;clip-rule:evenodd;fill:#FEEA06;}
</style>
<g>
	<path class="st0" d="M135.8,137.1l20.1-34.8h61.9l-1.6,3.7c-2.1,4.8,0.5,10.8,5.3,10.8h10.3c4.9,0,7.2-3.4,8.5-6.8l4.1-10.8
		c1.9-5.2,0.1-9.8-4.7-9.8h-53c-12.8,0-17.6-9.6-9.6-23.4l29.2-50.6c6.6-11.5,15-15.3,30.2-15.3h175.4l-14.2,36.7h-29.2l-11.7,119.4
		L417.2,0H474l34.9,164h-61.4l-2.1-31.1h-27l-8.9,31.1H292.9l28.8-127.3l-64.8,0.1c-2,0-11,0.7-12.8,4.6c-1.8,3.9,2.5,9.3,6,9.3
		h45.8c13,0,15.3,6.1,12,19.7l-18.4,76.4c-3.4,14.1-17.6,17.1-29.4,17.1H149.4C132.6,164,125,155.8,135.8,137.1L135.8,137.1z
		 M427.9,99.1h15L440.8,68h-4L427.9,99.1L427.9,99.1z"/>
	<path class="st0" d="M478.2,0l37.1,164h63.2l-23-64.9h2.2l49.2,64.9l69.7,0.1l-59.1-65c0,0-5-5.5,2.3-7.5s11.3-9.7,6.3-18.6
		l-32.4-58.5C588,4.3,580.2,0,568.9,0L478.2,0L478.2,0z M533.4,36.7l5,14.1h13.9c9.8,0,3-14.1-2.4-14.1H533.4L533.4,36.7z"/>
	<polygon class="st0" points="117.2,169.2 0,372.4 83.7,372.4 157.2,278 162.8,278 137.9,372.4 210.7,372.4 335.8,169.2 
		279.7,169.2 218.2,263.5 243.3,169.2 201.3,169.2 115.3,268.5 167.9,169.2 	"/>
	<path class="st0" d="M341.2,169.2h69.7l2.8,203.1h-70.6l3.6-38h-36.1l-20.4,38h-73L341.2,169.2L341.2,169.2z M333,292.9h17.7
		l3.2-33.3H351L333,292.9L333,292.9z"/>
	<path class="st0" d="M415.9,169.2l4.8,203.1h71l-10-79.5h2.5l41.5,79.5h79.5l-54.4-75.5c-2.8-3.8-8.3-11.5,0.7-12.7
		c9.1-1.2,18.5-8.6,11.7-32.9L546.5,190c-1.6-6-9.6-20.7-25.9-20.7H415.9V169.2z M472.1,216l2.5,20.3h18.9c7,0,5.8-20.3-4.5-20.3
		H472.1L472.1,216z"/>
	<path class="st0" d="M570.7,169.2h89.4c10.4,0,20.7,2.5,25.4,11l26.7,48.2h-69.7l-3-6.9c-1.3-3-4.9-5.6-8.1-5.6h-7
		c-4.2,0-6.6,2.3-4.9,6.6l3.1,8c1.5,3.9,6,5.7,10.2,5.7h58.9c7.2,0,25,0.4,30.8,10.9l57.1,125.2l0,0H622.7
		c-14.5,0-23-10.5-26.7-23.5l-15.9-56h66.8l5.7,14.5c1.3,3.4,4.4,7.4,8.1,7.4h8.4c4.8,0,8.1-5.3,6.3-9.4l-5.3-12.4
		c-1.9-4.5-6.9-8.8-11.8-8.8h-54.9c-17.3,0-26.8-3.6-32.7-24.5l-20.2-71.1C546,172.2,559.1,169.2,570.7,169.2L570.7,169.2z"/>
</g>
</svg>
